<svg xmlns="http://www.w3.org/2000/svg" viewBox="0 0 200 400" fill="none">
  <!-- Simple front-view body map. Path ids match BodyPart enum names. -->
  <path id="head" d="M 78 8 Q 100 2 122 8 Q 130 28 128 48 Q 100 58 72 48 Q 70 28 78 8 Z" fill="#E2E8F0" stroke="#64748B" stroke-width="1.5"/>
  <path id="neck" d="M 88 52 L 112 52 L 110 72 L 90 72 Z" fill="#E2E8F0" stroke="#64748B" stroke-width="1.5"/>
  <path id="leftShoulder" d="M 38 74 Q 58 68 72 82 L 68 98 Q 48 96 36 88 Z" fill="#E2E8F0" stroke="#64748B" stroke-width="1.5"/>
  <path id="rightShoulder" d="M 162 74 Q 142 68 128 82 L 132 98 Q 152 96 164 88 Z" fill="#E2E8F0" stroke="#64748B" stroke-width="1.5"/>
  <path id="chest" d="M 72 76 L 128 76 L 124 118 L 76 118 Z" fill="#E2E8F0" stroke="#64748B" stroke-width="1.5"/>
  <path id="upperBack" d="M 92 78 L 108 78 L 106 112 L 94 112 Z" fill="#E2E8F0" stroke="#64748B" stroke-width="1.5"/>
  <path id="abdomen" d="M 76 118 L 124 118 L 120 158 L 80 158 Z" fill="#E2E8F0" stroke="#64748B" stroke-width="1.5"/>
  <path id="lowerBack" d="M 90 116 L 110 116 L 108 152 L 92 152 Z" fill="#E2E8F0" stroke="#64748B" stroke-width="1.5"/>
  <path id="leftElbow" d="M 28 108 Q 34 128 30 148 Q 22 150 18 132 Q 20 114 28 108 Z" fill="#E2E8F0" stroke="#64748B" stroke-width="1.5"/>
  <path id="rightElbow" d="M 172 108 Q 166 128 170 148 Q 178 150 182 132 Q 180 114 172 108 Z" fill="#E2E8F0" stroke="#64748B" stroke-width="1.5"/>
  <path id="leftWrist" d="M 14 168 Q 24 164 28 178 Q 20 186 10 182 Z" fill="#E2E8F0" stroke="#64748B" stroke-width="1.5"/>
  <path id="rightWrist" d="M 186 168 Q 176 164 172 178 Q 180 186 190 182 Z" fill="#E2E8F0" stroke="#64748B" stroke-width="1.5"/>
  <path id="leftHip" d="M 68 156 Q 58 168 62 184 L 82 182 Q 86 168 78 158 Z" fill="#E2E8F0" stroke="#64748B" stroke-width="1.5"/>
  <path id="rightHip" d="M 132 156 Q 142 168 138 184 L 118 182 Q 114 168 122 158 Z" fill="#E2E8F0" stroke="#64748B" stroke-width="1.5"/>
  <path id="leftKnee" d="M 72 228 Q 88 224 90 248 Q 74 254 68 238 Z" fill="#E2E8F0" stroke="#64748B" stroke-width="1.5"/>
  <path id="rightKnee" d="M 128 228 Q 112 224 110 248 Q 126 254 132 238 Z" fill="#E2E8F0" stroke="#64748B" stroke-width="1.5"/>
  <path id="leftAnkle" d="M 70 318 Q 84 314 86 334 Q 72 340 66 326 Z" fill="#E2E8F0" stroke="#64748B" stroke-width="1.5"/>
  <path id="rightAnkle" d="M 130 318 Q 116 314 114 334 Q 128 340 134 326 Z" fill="#E2E8F0" stroke="#64748B" stroke-width="1.5"/>
  <!-- Outline limbs for context (non-tappable) -->
  <path d="M 68 98 L 28 108 L 14 168" stroke="#94A3B8" stroke-width="3" fill="none" stroke-linecap="round"/>
  <path d="M 132 98 L 172 108 L 186 168" stroke="#94A3B8" stroke-width="3" fill="none" stroke-linecap="round"/>
  <path d="M 82 184 L 78 228 L 70 318 L 68 368" stroke="#94A3B8" stroke-width="3" fill="none" stroke-linecap="round"/>
  <path d="M 118 184 L 122 228 L 130 318 L 132 368" stroke="#94A3B8" stroke-width="3" fill="none" stroke-linecap="round"/>
</svg>
